<?xml version="1.0" encoding="utf-8"?>
<!-- Generator: Adobe Illustrator 16.0.0, SVG Export Plug-In . SVG Version: 6.00 Build 0)  -->
<!DOCTYPE svg PUBLIC "-//W3C//DTD SVG 1.1//EN" "http://www.w3.org/Graphics/SVG/1.1/DTD/svg11.dtd">
<svg version="1.1" id="Layer_1" xmlns="http://www.w3.org/2000/svg" xmlns:xlink="http://www.w3.org/1999/xlink" x="0px" y="0px"
	 width="101.603px" height="90.25px" viewBox="107.365 94.75 101.603 90.25" enable-background="new 107.365 94.75 101.603 90.25"
	 xml:space="preserve">
<polygon fill="#FF0000" points="114.865,177.5 158.167,102.25 201.468,177.5 "/>
<circle fill="#FF0000" cx="158.167" cy="102.25" r="7.5"/>
<circle fill="#FF0000" cx="114.865" cy="177.5" r="7.5"/>
<circle fill="#FF0000" cx="201.468" cy="177.5" r="7.5"/>
<rect x="114.864" y="177.5" fill="#FF0000" width="86.604" height="7.5"/>
<rect x="89.937" y="134.342" transform="matrix(-0.4985 0.8669 -0.8669 -0.4985 319.3706 91.4258)" fill="#FF0000" width="86.605" height="7.5"/>
<rect x="139.8" y="134.339" transform="matrix(0.4985 0.8669 -0.8669 0.4985 211.5352 -89.4789)" fill="#FF0000" width="86.607" height="7.5"/>
<circle fill="#FFFFFF" cx="158.271" cy="167.5" r="5"/>
<path fill="#FFFFFF" d="M153.271,121.333c0-2.5,10.408-2.467,10,0c-1.104,6.667-5,33.167-5,33.167"/>
</svg>
