<?xml version="1.0" encoding="utf-8"?>
<!-- Generator: Adobe Illustrator 16.0.0, SVG Export Plug-In . SVG Version: 6.00 Build 0)  -->
<!DOCTYPE svg PUBLIC "-//W3C//DTD SVG 1.1//EN" "http://www.w3.org/Graphics/SVG/1.1/DTD/svg11.dtd">
<svg version="1.1" id="Layer_1" xmlns="http://www.w3.org/2000/svg" xmlns:xlink="http://www.w3.org/1999/xlink" x="0px" y="0px"
	 width="157.125px" height="123.5px" viewBox="167 108.792 157.125 123.5" enable-background="new 167 108.792 157.125 123.5"
	 xml:space="preserve">
<path fill="none" stroke="#D1D3D4" stroke-width="10" stroke-miterlimit="10" d="M321,125.554c0,0-13.5,12-38.5,12s-38.5-12-38.5-12
	s-13.5-12-38.5-12s-38.5,12-38.5,12s-13.5,12-38.5,12s-38.5-12-38.5-12s-13.5-12-38.5-12s-38.5,12-38.5,12"/>
<path fill="none" stroke="#D1D3D4" stroke-width="10" stroke-miterlimit="10" d="M321,155.999c0,0-13.5,12-38.5,12s-38.5-12-38.5-12
	s-13.5-12-38.5-12s-38.5,12-38.5,12s-13.5,12-38.5,12s-38.5-12-38.5-12s-13.5-12-38.5-12s-38.5,12-38.5,12"/>
<path fill="none" stroke="#D1D3D4" stroke-width="10" stroke-miterlimit="10" d="M321,185.36c0,0-13.5,12-38.5,12s-38.5-12-38.5-12
	s-13.5-12-38.5-12s-38.5,12-38.5,12s-13.5,12-38.5,12s-38.5-12-38.5-12s-13.5-12-38.5-12s-38.5,12-38.5,12"/>
<path fill="none" stroke="#D1D3D4" stroke-width="10" stroke-miterlimit="10" d="M321,214.915c0,0-13.5,12-38.5,12s-38.5-12-38.5-12
	s-13.5-12-38.5-12s-38.5,12-38.5,12s-13.5,12-38.5,12s-38.5-12-38.5-12s-13.5-12-38.5-12s-38.5,12-38.5,12"/>
</svg>
