<?xml version="1.0" encoding="utf-8"?>
<!-- Generator: Adobe Illustrator 16.0.0, SVG Export Plug-In . SVG Version: 6.00 Build 0)  -->
<!DOCTYPE svg PUBLIC "-//W3C//DTD SVG 1.1//EN" "http://www.w3.org/Graphics/SVG/1.1/DTD/svg11.dtd">
<svg version="1.1" id="Layer_1" xmlns="http://www.w3.org/2000/svg" xmlns:xlink="http://www.w3.org/1999/xlink" x="0px" y="0px"
	 width="300px" height="302.417px" viewBox="14.769 13.75 300 302.417" enable-background="new 14.769 13.75 300 302.417"
	 xml:space="preserve">
<line fill="none" stroke="#27AAE1" stroke-width="10" stroke-miterlimit="10" x1="14.769" y1="164.763" x2="314.77" y2="164.763"/>
<line fill="none" stroke="#27AAE1" stroke-width="10" stroke-miterlimit="10" x1="264.77" y1="164.763" x2="308.515" y2="209.648"/>
<line fill="none" stroke="#27AAE1" stroke-width="10" stroke-miterlimit="10" x1="264.77" y1="164.763" x2="308.135" y2="120.267"/>
<line fill="none" stroke="#27AAE1" stroke-width="10" stroke-miterlimit="10" x1="64.769" y1="164.763" x2="21.271" y2="120.131"/>
<line fill="none" stroke="#27AAE1" stroke-width="10" stroke-miterlimit="10" x1="64.769" y1="164.763" x2="21.147" y2="209.521"/>
<line fill="none" stroke="#27AAE1" stroke-width="10" stroke-miterlimit="10" x1="89.662" y1="298.114" x2="239.661" y2="31.538"/>
<line fill="none" stroke="#27AAE1" stroke-width="10" stroke-miterlimit="10" x1="214.661" y1="75.967" x2="274.419" y2="59.538"/>
<line fill="none" stroke="#27AAE1" stroke-width="10" stroke-miterlimit="10" x1="214.661" y1="75.967" x2="198.788" y2="15.185"/>
<line fill="none" stroke="#27AAE1" stroke-width="10" stroke-miterlimit="10" x1="114.661" y1="253.686" x2="55.242" y2="270.021"/>
<line fill="none" stroke="#27AAE1" stroke-width="10" stroke-miterlimit="10" x1="114.661" y1="253.686" x2="130.628" y2="314.825"/>
<polyline fill="none" stroke="#27AAE1" stroke-width="10" stroke-miterlimit="10" points="145.953,198.132 99.687,203.006 
	127.284,164.763 "/>
<polyline fill="none" stroke="#27AAE1" stroke-width="10" stroke-miterlimit="10" points="183.453,131.488 229.975,126.152 
	202.284,164.763 "/>
<line fill="none" stroke="#27AAE1" stroke-width="10" stroke-miterlimit="10" x1="89.876" y1="31.538" x2="239.876" y2="298.114"/>
<line fill="none" stroke="#27AAE1" stroke-width="10" stroke-miterlimit="10" x1="214.876" y1="253.686" x2="198.864" y2="315"/>
<line fill="none" stroke="#27AAE1" stroke-width="10" stroke-miterlimit="10" x1="214.876" y1="253.686" x2="274.115" y2="269.972"/>
<line fill="none" stroke="#27AAE1" stroke-width="10" stroke-miterlimit="10" x1="114.876" y1="75.967" x2="130.797" y2="15"/>
<line fill="none" stroke="#27AAE1" stroke-width="10" stroke-miterlimit="10" x1="114.876" y1="75.967" x2="55.288" y2="59.585"/>
<polyline fill="none" stroke="#27AAE1" stroke-width="10" stroke-miterlimit="10" points="146.114,131.488 164.784,87.809 
	183.453,131.488 "/>
<polyline fill="none" stroke="#27AAE1" stroke-width="10" stroke-miterlimit="10" points="146.114,131.488 99.687,126.521 
	127.284,164.763 "/>
<polyline fill="none" stroke="#27AAE1" stroke-width="10" stroke-miterlimit="10" points="183.614,198.132 164.784,241.717 
	145.953,198.132 "/>
<polyline fill="none" stroke="#27AAE1" stroke-width="10" stroke-miterlimit="10" points="183.614,198.132 229.975,202.84 
	202.284,164.763 "/>
<path fill="none" stroke="#27AAE1" stroke-width="10" stroke-miterlimit="10" d="M34.574,241.248"/>
<path fill="none" stroke="#27AAE1" stroke-width="10" stroke-miterlimit="10" d="M164.769,164.763"/>
<path fill="none" stroke="#27AAE1" stroke-width="10" stroke-miterlimit="10" d="M164.769,164.763"/>
</svg>
