<?xml version="1.0" encoding="utf-8"?>
<!-- Generator: Adobe Illustrator 16.0.0, SVG Export Plug-In . SVG Version: 6.00 Build 0)  -->
<!DOCTYPE svg PUBLIC "-//W3C//DTD SVG 1.1//EN" "http://www.w3.org/Graphics/SVG/1.1/DTD/svg11.dtd">
<svg version="1.1" id="Layer_1" xmlns="http://www.w3.org/2000/svg" xmlns:xlink="http://www.w3.org/1999/xlink" x="0px" y="0px"
	 width="116.917px" height="78.708px" viewBox="85.083 155.917 116.917 78.708"
	 enable-background="new 85.083 155.917 116.917 78.708" xml:space="preserve">
<ellipse fill="none" stroke="#666666" stroke-width="5" stroke-miterlimit="10" cx="143.597" cy="169.303" rx="55.943" ry="10.887"/>
<path fill="none" stroke="#666666" stroke-width="5" stroke-miterlimit="10" d="M188.636,181.695
	c0,6.012-20.347,10.886-45.445,10.886c-25.1,0-45.446-4.874-45.446-10.886c0-1.857,1.942-3.606,5.366-5.137"/>
<path fill="none" stroke="#666666" stroke-width="5" stroke-miterlimit="10" d="M178.546,193.826
	c0,6.012-16.958,10.885-37.878,10.885s-37.879-4.873-37.879-10.885c0-1.857,1.619-3.607,4.472-5.137"/>
<path fill="none" stroke="#666666" stroke-width="5" stroke-miterlimit="10" d="M168.456,207.822
	c0,6.013-12.379,10.886-27.648,10.886c-15.271,0-27.65-4.873-27.65-10.886c0-1.856,1.182-3.606,3.265-5.137"/>
<path fill="none" stroke="#666666" stroke-width="5" stroke-miterlimit="10" d="M121.485,215.295c0,0-1.185,7.383,4.88,9.032
	c13.937,3.791,23.283,6.194,23.647,10.089"/>
</svg>
