<?xml version="1.0" encoding="utf-8"?>
<!-- Generator: Adobe Illustrator 16.0.0, SVG Export Plug-In . SVG Version: 6.00 Build 0)  -->
<!DOCTYPE svg PUBLIC "-//W3C//DTD SVG 1.1//EN" "http://www.w3.org/Graphics/SVG/1.1/DTD/svg11.dtd">
<svg version="1.1" id="Layer_1" xmlns="http://www.w3.org/2000/svg" xmlns:xlink="http://www.w3.org/1999/xlink" x="0px" y="0px"
	 width="246.75px" height="130px" viewBox="43.75 99.5 246.75 130" enable-background="new 43.75 99.5 246.75 130"
	 xml:space="preserve">
<path fill="none" stroke="#D1D3D4" stroke-width="10" stroke-miterlimit="10" d="M217.529,141.252"/>
<path fill="none" stroke="#D1D3D4" stroke-width="10" stroke-miterlimit="10" d="M226.303,136.346
	c-0.297-7.852,2.478-15.81,8.354-21.922c5.457-5.656,13.112-9.174,21.594-9.174c16.567,0,30,13.432,30,30s-13.433,30-30,30H43.75"/>
<path fill="none" stroke="#D1D3D4" stroke-width="10" stroke-miterlimit="10" d="M163.776,128.798
	c-0.147-3.926,1.239-7.905,4.177-10.961c2.729-2.828,6.557-4.587,10.797-4.587c8.283,0,15,6.716,15,15s-6.717,15-15,15H66.112H43.75
	"/>
<path fill="none" stroke="#D1D3D4" stroke-width="10" stroke-miterlimit="10" d="M203.785,204.02
	c-0.197,5.234,1.65,10.541,5.568,14.614c3.639,3.771,8.741,6.116,14.396,6.116c11.045,0,20-8.954,20-20s-8.955-20-20-20H73.566
	H43.75"/>
<path fill="none" stroke="#D1D3D4" stroke-width="10" stroke-miterlimit="10" d="M43.75,184.75"/>
<path fill="none" stroke="#D1D3D4" stroke-width="10" stroke-miterlimit="10" d="M43.75,165.25"/>
<path fill="none" stroke="#D1D3D4" stroke-width="10" stroke-miterlimit="10" d="M43.75,143.25"/>
</svg>
